<svg xmlns="http://www.w3.org/2000/svg" viewBox="0 0 1141.6357 285.8551"><defs><style>.b0aac9ca-4716-4e8c-abf9-794f34a5ccd4,.e20baeae-f90e-4cba-9fa4-cdd5125231a3{fill:#3779d6;}.b0aac9ca-4716-4e8c-abf9-794f34a5ccd4{stroke:#275072;stroke-miterlimit:10;stroke-width:4px;}</style></defs><g id="bb9cf93a-f34a-4eb5-92a6-5584b6a3c3d0" data-name="Ebene 2"><path class="b0aac9ca-4716-4e8c-abf9-794f34a5ccd4" d="M238.0015,221.9846a33.0093,33.0093,0,0,1,54.1411-28.3464,50.0767,50.0767,0,0,1,26.9915-2.5463,31.7922,31.7922,0,0,1,36.8-5.6935q1.0929-4.3077,1.9278-8.7365A140.7987,140.7987,0,1,0,214.3788,291.4344a50.3176,50.3176,0,0,1,23.6227-69.45Z" transform="translate(-4.4785 -7.7059)"/><path class="b0aac9ca-4716-4e8c-abf9-794f34a5ccd4" d="M238.5394,287.1386a47.6181,47.6181,0,0,1-3.0221-15.3629c.0071-7.7389.7717-12.4192,6.6727-16.9356s13.2768,1.1589,14.709,3.5506c.517.8633,2.6967,2.7206,3.1527,9.58,0,0,5.6339-1.53,8.8906-.0458,3.33,1.5176,6.5279,4.3247,5.9951,9.7181C274.4018,283.064,267.2615,294.5235,238.5394,287.1386Z" transform="translate(-4.4785 -7.7059)"/><path class="b0aac9ca-4716-4e8c-abf9-794f34a5ccd4" d="M333.3505,278.8064a25.3569,25.3569,0,0,1-4.353-7.1106c-1.4291-3.865-1.9138-6.3432.1962-9.6905s6.8431-1.8794,8.0009-.95c.4179.3353,1.85.859,3.3476,4.1994,0,0,2.53-1.8068,4.43-1.6688a4.8556,4.8556,0,0,1,4.7922,3.742C350.5007,270.1329,349.0574,277.176,333.3505,278.8064Z" transform="translate(-4.4785 -7.7059)"/><path class="b0aac9ca-4716-4e8c-abf9-794f34a5ccd4" d="M294.3858,270.0509s-11.0994-6.5546-18.5381-16.1738-10.9931-16.1683-8.01-27.4569,17.6063-11.3375,21.6869-9.745c1.4729.5748,5.9676.784,13.1354,8.8657,0,0,5.5257-7.322,10.9988-8.6127,5.597-1.32,12.27-.9105,16.7986,6.3013C335.0088,230.4777,337.1679,251.5829,294.3858,270.0509Z" transform="translate(-4.4785 -7.7059)"/><path class="b0aac9ca-4716-4e8c-abf9-794f34a5ccd4" d="M364.3253,276.1364s-9.304-15.4967-11.979-32.1495-2.6228-26.9516,8.7683-38.4357,29.5648-1.4815,33.5422,3.2357c1.4356,1.7027,6.869,5.0462,10.2553,19.6689,0,0,11.8429-4.9782,19.5119-2.76,7.8424,2.2681,15.8419,7.35,16.5466,19.1142C441.6788,256.6328,429.98,283.4263,364.3253,276.1364Z" transform="translate(-4.4785 -7.7059)"/><path d="M676.8961-122.3264" transform="translate(-4.4785 -7.7059)"/></g><g id="a7158dca-8db0-4004-9365-24a2252be684" data-name="Ebene 1"><path class="e20baeae-f90e-4cba-9fa4-cdd5125231a3" d="M59.1221,203.0967l-28.7769-34.92L16.4419,186.2832v16.8135H4.4785V83.4634H16.4419v84.0659l40.4165-53.0259h15.52L38.1055,158.8l36.5366,44.2969Z" transform="translate(-4.4785 -7.7059)"/><path class="e20baeae-f90e-4cba-9fa4-cdd5125231a3" d="M413.1514,205.3594c-27.16,0-48.5-20.3692-48.5-46.56,0-25.8667,21.9868-46.2363,47.8535-46.2363,19.0766,0,36.5366,10.67,43.65,28.7763H442.8979c-6.4663-11.3164-19.4-17.1367-30.07-17.1367-19.7236,0-36.2134,14.55-36.2134,34.2735,0,18.7539,14.55,35.2441,35.2432,35.2441,12.2866,0,21.9868-4.2041,31.04-16.49h13.2569C448.3945,194.3672,431.9048,205.3594,413.1514,205.3594Z" transform="translate(-4.4785 -7.7059)"/><path class="e20baeae-f90e-4cba-9fa4-cdd5125231a3" d="M541.1851,203.0967V153.95c0-18.43-11.64-29.7471-27.8067-29.7471-12.9331,0-26.5132,8.4068-26.5132,27.4834v51.41H474.9019V83.4634h11.9633v43.9731c5.1734-9.7,15.1968-14.873,26.8369-14.873,21.9864,0,39.4463,16.813,39.4463,40.74v49.7935Z" transform="translate(-4.4785 -7.7059)"/><path class="e20baeae-f90e-4cba-9fa4-cdd5125231a3" d="M582.8916,163.0039c0,15.52,15.5195,30.7168,33.3027,30.7168,12.2871,0,26.5137-7.4375,31.3633-19.4h12.61c-6.4668,17.7832-23.9268,31.0391-43.0039,31.0391-25.543,0-46.56-20.0459-46.56-46.2364,0-25.5429,20.0469-46.5595,46.2363-46.5595,13.58,0,25.544,6.143,34.2735,15.8432,9.0537,10.023,11.3173,21.9864,11.6406,34.5972Zm33.9492-38.8008a34.7887,34.7887,0,0,0-34.2734,28.13H650.791C647.8809,136.49,633.0078,124.2031,616.8408,124.2031Z" transform="translate(-4.4785 -7.7059)"/><path class="e20baeae-f90e-4cba-9fa4-cdd5125231a3" d="M747.1387,203.0967V153.95c0-17.46-10.67-29.7471-27.8067-29.7471a27.4433,27.4433,0,0,0-19.0761,7.437c-5.1739,4.85-7.4375,11.9634-7.4375,21.6631v49.7935H680.8555V114.5034h11.3164V127.76c5.497-7.76,13.9033-15.1963,27.4834-15.1963a39.7178,39.7178,0,0,1,27.4834,10.9931c7.76,6.79,11.9638,17.1368,11.9638,29.4234v50.1167Z" transform="translate(-4.4785 -7.7059)"/><path class="e20baeae-f90e-4cba-9fa4-cdd5125231a3" d="M826.9951,203.0967V83.4634H838.958V203.0967Z" transform="translate(-4.4785 -7.7059)"/><path class="e20baeae-f90e-4cba-9fa4-cdd5125231a3" d="M903.9463,205.3594c-24.5733,0-46.56-20.0459-46.56-45.9126a46.6419,46.6419,0,0,1,46.56-46.8833c24.25,0,45.9141,21.34,45.9141,45.9131C949.86,182.7266,930.1367,205.3594,903.9463,205.3594Zm-.3233-81.1563c-19.3994,0-34.2734,16.167-34.2734,35.2437s15.8438,34.2739,34.5967,34.2739c19.4,0,33.95-15.8437,33.95-35.5674C937.8965,139.0767,922.0537,124.2031,903.623,124.2031Z" transform="translate(-4.4785 -7.7059)"/><path class="e20baeae-f90e-4cba-9fa4-cdd5125231a3" d="M1008.377,203.0967h-12.61L958.583,114.5034h12.9336l30.7168,73.397,30.3936-73.397h12.9335Z" transform="translate(-4.4785 -7.7059)"/><path class="e20baeae-f90e-4cba-9fa4-cdd5125231a3" d="M1066.251,163.0039c0,15.52,15.52,30.7168,33.3027,30.7168,12.2871,0,26.5137-7.4375,31.3633-19.4h12.61c-6.4668,17.7832-23.9267,31.0391-43.0039,31.0391-25.5429,0-46.56-20.0459-46.56-46.2364,0-25.5429,20.0468-46.5595,46.2363-46.5595,13.58,0,25.5439,6.143,34.2734,15.8432,9.0537,10.023,11.3174,21.9864,11.6407,34.5972ZM1100.2,124.2031a34.7886,34.7886,0,0,0-34.2734,28.13H1134.15C1131.24,136.49,1116.3672,124.2031,1100.2,124.2031Z" transform="translate(-4.4785 -7.7059)"/><path d="M101.9766,189.498c4.7959,14.7608,24.2529,24.418,41.166,18.9219,11.6855-3.7969,22.9179-15.2656,23.833-28.1426l11.9932-3.8964c-.6553,18.9111-13.1641,36.914-31.3067,42.81-24.2939,7.8936-50.4756-4.6767-58.5693-29.5859-7.8936-24.293,4.6777-50.4761,29.5859-58.5693,12.916-4.1963,26.1914-2.0508,37.4922,4.4765,11.707,6.7354,17.5566,17.4141,21.7607,29.3067Zm20.2988-47.3925A34.7894,34.7894,0,0,0,98.3721,179.45l64.8847-21.082C155.5938,144.1987,137.65,137.11,122.2754,142.1055Z" transform="translate(-4.4785 -7.7059)"/><path d="M282.2617,173.0762l-5.2959-16.2979c-2.1533,14.3-13.6855,24.8447-26.6006,29.042-10.456,3.3965-25.9,3.9961-43.5117-6.2607a48.7812,48.7812,0,0,1-16.4883-23.54c-7.5937-23.3711,5.1856-49.9619,30.709-58.2549,24.9082-8.0927,38.5987,6.837,39.2061,7.66l-5.3955-16.6055,10.7627-3.497,27.3769,84.2568Zm-57.2832-64.3408a35.3954,35.3954,0,0,0-22.9355,44.5092c5.8955,18.1431,26.582,27.4009,44.7256,21.5054s27.5-26.2744,21.9043-43.4951C262.6787,112.8047,243.7363,102.6406,224.9785,108.7354Z" transform="translate(-4.4785 -7.7059)"/><path d="M311.167,82.0908l23.98,73.8018L323.7686,159.59,299.7891,85.7876l-17.5284,5.6953-3.3974-10.4551,17.5283-5.6953L286.8,45.8115l11.3779-3.6972L307.77,71.6357,327.45,65.2412l3.3975,10.4551Z" transform="translate(-4.4785 -7.7059)"/></g></svg>