<svg xmlns="http://www.w3.org/2000/svg" viewBox="0 0 1159.74 295.77"><defs><style>.cls-1,.cls-2{fill:#3779d6;}.cls-1{stroke:#275072;stroke-miterlimit:10;stroke-width:4px;}.cls-2,.cls-3{font-size:161.66px;font-family:QTAvanti;}</style></defs><g id="Ebene_2" data-name="Ebene 2"><path class="cls-1" d="M238,222a33.36,33.36,0,0,1,.43-9.21,33,33,0,0,1,53.71-19.13,50,50,0,0,1,27-2.55,31.77,31.77,0,0,1,28.22-8.62,31.4,31.4,0,0,1,8.58,2.93c.73-2.87,1.38-5.79,1.93-8.74A140.8,140.8,0,1,0,214.38,291.43,50.32,50.32,0,0,1,238,222Z" transform="translate(5.87 2.21)"/><path class="cls-1" d="M238.54,287.14a47.6,47.6,0,0,1-3-15.36c0-7.74.77-12.42,6.67-16.94s13.28,1.16,14.71,3.55c.52.86,2.7,2.72,3.15,9.58,0,0,5.64-1.53,8.89,0s6.53,4.32,6,9.71S267.26,294.52,238.54,287.14Z" transform="translate(5.87 2.21)"/><path class="cls-1" d="M333.35,278.81A25.49,25.49,0,0,1,329,271.7c-1.43-3.87-1.92-6.35.19-9.69s6.85-1.88,8-1c.42.34,1.85.86,3.35,4.2,0,0,2.53-1.8,4.43-1.66a4.84,4.84,0,0,1,4.79,3.74C350.5,270.13,349.06,277.18,333.35,278.81Z" transform="translate(5.87 2.21)"/><path class="cls-1" d="M294.39,270.05s-11.1-6.55-18.54-16.17-11-16.17-8-27.46,17.6-11.34,21.68-9.74c1.48.57,6,.78,13.14,8.86,0,0,5.53-7.32,11-8.61s12.27-.91,16.8,6.3S337.17,251.58,294.39,270.05Z" transform="translate(5.87 2.21)"/><path class="cls-1" d="M364.33,276.14s-9.31-15.5-12-32.15-2.63-27,8.76-38.44,29.57-1.48,33.55,3.24c1.43,1.7,6.87,5,10.25,19.67,0,0,11.84-5,19.51-2.76,7.85,2.26,15.85,7.35,16.55,19.11S430,283.43,364.33,276.14Z" transform="translate(5.87 2.21)"/><path d="M676.9-122.33" transform="translate(5.87 2.21)"/></g><g id="Ebene_1" data-name="Ebene 1"><text x="5.87" y="2.21"/><text class="cls-2" transform="translate(0 205.31)"><tspan xml:space="preserve">k      chen love</tspan></text><text class="cls-3" transform="matrix(0.95, -0.31, 0.31, 0.95, 102.04, 235.73)">eat</text></g></svg>